<svg width="46" height="44" viewBox="0 0 46 44" fill="none" xmlns="http://www.w3.org/2000/svg">
<path d="M20.5206 33.6332C17.5802 35.1835 14.6412 36.7965 11.7008 38.346C8.68041 36.7851 5.65924 35.224 2.63883 33.6631V33.6523C5.66 32.0915 8.68041 30.5304 11.7008 28.9695C14.6412 30.519 17.5809 32.0693 20.5214 33.6188L20.5206 33.6332ZM14.2632 40.0148H14.2429L14.2527 40.0202C14.2496 40.0217 14.2459 40.024 14.2429 40.0255H14.2632C15.7112 40.7738 17.1599 41.5222 18.6078 42.2705C21.5739 43.8039 25.0908 43.7741 28.032 42.1924C29.403 41.4548 30.774 40.7187 32.145 39.9956L32.1457 39.9811C29.2053 38.4308 26.2649 36.8813 23.3252 35.3311L14.2632 40.0148ZM45.1155 31.0202L45.0476 16.9807C45.0287 13.105 42.8775 9.56379 39.4723 7.80311C34.6319 5.30021 29.7908 2.79807 24.9497 0.295166V8.38618C30.5348 9.43371 34.7647 14.3982 34.7647 20.3651C34.7647 22.0622 34.4222 23.6775 33.8042 25.1458C37.5747 27.1039 41.3451 29.0613 45.1155 31.0202ZM0.452186 16.9806C0.42955 21.6604 0.406913 26.3396 0.384277 31.0201C4.1547 29.0612 7.92512 27.1039 11.6963 25.1458C11.0783 23.6775 10.7358 22.0621 10.7358 20.365C10.7358 14.3981 14.9657 9.43363 20.55 8.3861V0.295166L6.02746 7.80311C2.62231 9.56371 0.471049 13.105 0.452186 16.9806ZM34.927 28.9695C31.9066 30.5304 28.8854 32.0915 25.865 33.6523V33.6631C28.8854 35.224 31.9066 36.7851 34.927 38.346C37.8674 36.7965 40.8063 35.1835 43.7467 33.6332L43.7475 33.6188C40.8071 32.0693 37.8674 30.519 34.927 28.9695Z" fill="url(#paint0_linear)"/>
<defs>
<linearGradient id="paint0_linear" x1="22.7499" y1="43.4" x2="22.7499" y2="0.295166" gradientUnits="userSpaceOnUse">
<stop stop-color="#FCAC45"/>
<stop offset="1" stop-color="#FCD345"/>
</linearGradient>
</defs>
</svg>
