<svg width="45" height="44" viewBox="0 0 45 44" fill="none" xmlns="http://www.w3.org/2000/svg">
<path d="M20.1363 33.6332C17.1959 35.1835 14.257 36.7965 11.3165 38.346C8.29613 36.7851 5.27497 35.224 2.25456 33.6631V33.6523C5.27572 32.0915 8.29613 30.5304 11.3165 28.9695C14.257 30.519 17.1966 32.0693 20.1371 33.6188L20.1363 33.6332ZM13.8789 40.0148H13.8586L13.8684 40.0202C13.8654 40.0217 13.8616 40.024 13.8586 40.0255H13.8789C15.3269 40.7738 16.7756 41.5222 18.2236 42.2705C21.1897 43.8039 24.7065 43.7741 27.6477 42.1924C29.0187 41.4548 30.3897 40.7187 31.7607 39.9956L31.7615 39.9811C28.821 38.4308 25.8806 36.8813 22.9409 35.3311L13.8789 40.0148ZM44.7312 31.0202L44.6633 16.9807C44.6444 13.105 42.4932 9.56379 39.088 7.80311C34.2477 5.30021 29.4066 2.79807 24.5654 0.295166V8.38618C30.1505 9.43371 34.3805 14.3982 34.3805 20.3651C34.3805 22.0622 34.0379 23.6775 33.4199 25.1458C37.1904 27.1039 40.9608 29.0613 44.7312 31.0202ZM0.0679084 16.9806C0.0452723 21.6604 0.0226361 26.3396 0 31.0201C3.77042 29.0612 7.54084 27.1039 11.312 25.1458C10.694 23.6775 10.3515 22.0621 10.3515 20.365C10.3515 14.3981 14.5814 9.43363 20.1657 8.3861V0.295166L5.64318 7.80311C2.23803 9.56371 0.0867718 13.105 0.0679084 16.9806ZM34.5427 28.9695C31.5223 30.5304 28.5011 32.0915 25.4807 33.6523V33.6631C28.5011 35.224 31.5223 36.7851 34.5427 38.346C37.4831 36.7965 40.422 35.1835 43.3625 33.6332L43.3632 33.6188C40.4228 32.0693 37.4831 30.519 34.5427 28.9695Z" fill="url(#paint0_linear)"/>
<defs>
<linearGradient id="paint0_linear" x1="22.3656" y1="43.4" x2="22.3656" y2="0.295166" gradientUnits="userSpaceOnUse">
<stop stop-color="#FCAC45"/>
<stop offset="1" stop-color="#FCD345"/>
</linearGradient>
</defs>
</svg>
