<svg width="161" height="44" viewBox="0 0 161 44" fill="none" xmlns="http://www.w3.org/2000/svg">
<path d="M55.3272 12.0238C55.3272 11.4852 55.7755 11.0576 56.307 11.0576H64.4392C66.2613 11.0576 67.8314 11.7127 69.1483 13.0483C70.4668 14.3838 71.1118 15.9767 71.1118 17.8519C71.1118 19.6996 70.4667 21.2934 69.1483 22.6291C67.8314 23.9667 66.2613 24.6187 64.4392 24.6187H57.2332V31.6437C57.2897 32.8946 55.2702 32.8946 55.3271 31.6437V12.0238H55.3272ZM57.2333 12.99V22.6861H64.4393C65.7562 22.6861 66.8499 22.2311 67.7761 21.2934C68.7002 20.3558 69.1484 19.1873 69.1484 17.8519C69.1484 16.5163 68.7003 15.3501 67.7761 14.4125C66.85 13.4747 65.7562 12.99 64.4393 12.99H57.2333Z" fill="black"/>
<path d="M81.0948 29.1694L88.3558 11.3983C88.524 11.0278 88.8319 10.83 89.2503 10.83C89.8117 10.83 90.2073 11.2279 90.2073 11.7687C90.2073 11.9105 90.177 12.0523 90.1217 12.1657L81.962 32.0394C81.8211 32.4099 81.5133 32.6088 81.0949 32.6088C80.6743 32.6088 80.3643 32.4099 80.2235 32.0394L72.0658 12.1657C72.0078 12.0524 71.9812 11.9105 71.9812 11.7687C71.9812 11.228 72.3736 10.83 72.9331 10.83C73.3561 10.83 73.6634 11.0278 73.832 11.3983L81.0948 29.1694Z" fill="black"/>
<path d="M94.2426 30.306C92.5604 28.6 91.7214 26.5531 91.7214 24.1361C91.7214 21.721 92.5604 19.6722 94.2426 17.9937C95.9259 16.2898 97.9714 15.4368 100.355 15.4368C102.629 15.4368 104.618 16.2326 106.272 17.7946C106.355 17.8814 106.411 18.0232 106.411 18.1651C106.411 18.5927 105.878 18.7916 105.627 18.5354C104.139 17.1131 102.375 16.4019 100.355 16.4019C98.2532 16.4019 96.43 17.1702 94.946 18.6772C93.4589 20.1864 92.7013 22.0046 92.7013 24.136C92.7013 26.2696 93.4589 28.0876 94.946 29.6244C96.4602 31.1292 98.2531 31.8976 100.355 31.8976C102.347 31.8976 104.112 31.1865 105.627 29.7365C105.877 29.4803 106.411 29.6794 106.411 30.107C106.411 30.2487 106.356 30.3905 106.272 30.4774C104.59 32.069 102.629 32.865 100.355 32.865C97.9714 32.865 95.9563 32.0119 94.2426 30.306Z" fill="black"/>
<path d="M124.499 28.1428C123.794 29.5672 122.73 30.7038 121.358 31.5844C119.983 32.4395 118.499 32.865 116.841 32.865C114.46 32.865 112.44 32.0119 110.757 30.306C109.074 28.6 108.233 26.5531 108.233 24.1361C108.233 21.721 109.074 19.6722 110.757 17.9937C112.44 16.2898 114.46 15.4368 116.841 15.4368C118.499 15.4368 119.983 15.8623 121.358 16.7438C122.73 17.5978 123.794 18.7345 124.499 20.1569V16.1755C124.499 15.5501 125.449 15.5501 125.449 16.1755V32.1242C125.449 32.7507 124.499 32.7507 124.499 32.1242V28.1428ZM111.432 29.6244C112.917 31.1292 114.74 31.8976 116.841 31.8976C118.944 31.8976 120.768 31.1292 122.252 29.6244C123.741 28.1174 124.499 26.2696 124.499 24.136C124.499 22.0046 123.741 20.1863 122.252 18.6772C120.768 17.1702 118.944 16.4019 116.841 16.4019C114.74 16.4019 112.916 17.1702 111.432 18.6772C109.946 20.1864 109.215 22.0046 109.215 24.136C109.215 26.2696 109.946 28.1174 111.432 29.6244Z" fill="black"/>
<path d="M134.535 31.9251C137.788 31.9251 140.001 30.4774 140.001 28.1174C140.001 26.0982 138.403 24.6187 136.05 24.3055L133.02 23.9371C130.412 23.6262 128.812 21.9477 128.812 19.5875C128.812 16.9715 131.143 15.4369 134.649 15.4369C136.58 15.4369 138.374 15.8624 140.033 16.6878C140.562 16.9715 140.144 17.8245 139.582 17.5398C138.038 16.7726 136.386 16.4021 134.649 16.4021C131.702 16.4021 129.795 17.598 129.795 19.6151C129.795 21.2936 131.17 22.7138 133.19 22.9699L136.216 23.3404C139.162 23.6832 140.983 25.4442 140.983 28.1747C140.983 31.104 138.459 32.8652 134.535 32.8652C132.46 32.8652 130.469 32.3253 128.563 31.2459C128.029 30.9622 128.449 30.1072 129.012 30.3907C130.833 31.4151 132.684 31.9251 134.535 31.9251Z" fill="black"/>
<path d="M157.693 17.9089C159.348 19.5302 160.245 21.522 160.33 23.8523C160.33 24.3053 160.02 24.6186 159.655 24.6186H144.152C144.293 26.6673 145.105 28.4009 146.535 29.7958C147.993 31.1864 149.732 31.8975 151.75 31.8975C154.413 31.8975 156.796 30.4773 158.169 28.2867C158.252 28.0622 158.424 27.948 158.648 27.948C158.9 27.948 159.124 28.1744 159.124 28.4285C159.124 28.5152 159.069 28.6295 158.983 28.7692C157.414 31.271 154.748 32.8648 151.75 32.8648C149.365 32.8648 147.346 32.0118 145.664 30.3059C144.013 28.5999 143.172 26.553 143.172 24.136C143.172 21.7208 144.013 19.6721 145.664 17.9936C147.346 16.2897 149.365 15.4366 151.75 15.4366C154.048 15.4367 156.038 16.2602 157.693 17.9089ZM159.348 23.6535C159.21 21.6342 158.424 19.8985 156.965 18.5058C155.508 17.1131 153.77 16.4018 151.75 16.4018C149.732 16.4018 147.993 17.1131 146.535 18.5058C145.105 19.8985 144.293 21.6045 144.152 23.6535H159.348Z" fill="black"/>
<path d="M20.5206 33.6331C17.5802 35.1834 14.6412 36.7964 11.7008 38.3459C8.68041 36.7849 5.65924 35.2239 2.63883 33.663V33.6522C5.66 32.0913 8.68041 30.5303 11.7008 28.9694C14.6412 30.5189 17.5809 32.0691 20.5214 33.6186L20.5206 33.6331ZM14.2632 40.0147H14.2429L14.2527 40.02C14.2496 40.0216 14.2459 40.0239 14.2429 40.0253H14.2632C15.7112 40.7737 17.1599 41.5221 18.6078 42.2704C21.5739 43.8038 25.0908 43.7739 28.032 42.1923C29.403 41.4547 30.774 40.7186 32.145 39.9955L32.1457 39.9809C29.2053 38.4307 26.2649 36.8812 23.3252 35.3309L14.2632 40.0147ZM45.1155 31.0201L45.0476 16.9806C45.0287 13.1049 42.8775 9.56367 39.4723 7.80299C34.6319 5.30009 29.7908 2.79795 24.9497 0.295044V8.38606C30.5348 9.43359 34.7647 14.3981 34.7647 20.3649C34.7647 22.0621 34.4222 23.6774 33.8042 25.1457C37.5747 27.1038 41.3451 29.0611 45.1155 31.0201ZM0.452186 16.9805C0.42955 21.6603 0.406913 26.3395 0.384277 31.02C4.1547 29.0611 7.92512 27.1037 11.6963 25.1456C11.0783 23.6773 10.7358 22.062 10.7358 20.3649C10.7358 14.398 14.9657 9.43351 20.55 8.38598V0.295044L6.02746 7.80299C2.62231 9.56359 0.471049 13.1048 0.452186 16.9805ZM34.927 28.9694C31.9066 30.5303 28.8854 32.0913 25.865 33.6522V33.663C28.8854 35.2239 31.9066 36.7849 34.927 38.3459C37.8674 36.7964 40.8063 35.1834 43.7467 33.6331L43.7475 33.6186C40.8071 32.0691 37.8674 30.5189 34.927 28.9694Z" fill="url(#paint0_linear)"/>
<defs>
<linearGradient id="paint0_linear" x1="22.7499" y1="43.3999" x2="22.7499" y2="0.295044" gradientUnits="userSpaceOnUse">
<stop stop-color="#FCAC45"/>
<stop offset="1" stop-color="#FCD345"/>
</linearGradient>
</defs>
</svg>
