<svg width="25" height="25" viewBox="0 0 25 25" fill="none" xmlns="http://www.w3.org/2000/svg">
<path fill-rule="evenodd" clip-rule="evenodd" d="M16.385 9.31405L14.97 7.89905L12.142 10.728L9.31399 7.89905L7.89899 9.31405L10.728 12.142L7.89899 14.971L9.31399 16.385L12.142 13.556L14.971 16.385L16.385 14.97L13.556 12.142L16.385 9.31405V9.31405ZM19.213 5.07105C15.31 1.16805 8.97399 1.16805 5.07099 5.07105C1.16799 8.97405 1.16799 15.31 5.07099 19.213C8.97399 23.116 15.31 23.116 19.213 19.213C23.116 15.31 23.116 8.97405 19.213 5.07105V5.07105ZM6.48499 17.8C3.36699 14.682 3.36699 9.60505 6.48499 6.48605C9.60399 3.36805 14.681 3.36805 17.799 6.48605C20.917 9.60505 20.917 14.682 17.799 17.8C14.681 20.918 9.60399 20.918 6.48499 17.8V17.8Z" fill="white"/>
</svg>
